<?xml version="1.0" encoding="UTF-8"?>
<svg width="752pt" height="752pt" version="1.1" viewBox="0 0 752 752" xmlns="http://www.w3.org/2000/svg">
 <defs>
  <clipPath id="a">
   <path d="m139.21 139.21h473.58v473.58h-473.58z"/>
  </clipPath>
 </defs>
 <g clip-path="url(#a)">
  <path d="m576.68 501.6c28.531-45.398 40.809-99.137 34.82-152.42-5.9844-53.285-29.879-102.96-67.773-140.9-4.3398-30.488-3.2578-37.688-11.246-40.352-7.9922-2.6641-9.8672 1.7773-21.113 13.32-47.227-32.547-104.63-46.918-161.62-40.461-56.992 6.4531-109.73 33.301-148.48 75.582-32.461 4.5391-38.379 3.5547-40.945 11.645-2.5664 8.0898 4.0469 11.742 14.996 22.691-29.281 46.93-41.207 102.63-33.707 157.44 7.4961 54.805 33.941 105.25 74.75 142.6 4.5391 32.457 3.5547 38.379 11.645 40.945 8.0898 2.5664 11.348-3.6523 22.691-14.996v-0.003906c45.371 28.457 99.051 40.688 152.27 34.703 53.223-5.9844 102.84-29.832 140.76-67.656 10.457-10.457 0-6.7109 40.254-12.43 3.7227-0.50781 6.832-3.082 8.0234-6.6406 1.1953-3.5586 0.26562-7.4844-2.3984-10.133zm-70.445-70.445-8.6836-8.6836 0.003907 0.003906c-2.6523-2.6055-6.543-3.4961-10.062-2.3086-3.5234 1.1875-6.0781 4.2539-6.6133 7.9297-7.9922 55.547-6.0195 49.332-9.8672 52.688-20.047 17.957-44.77 29.879-71.305 34.383-26.539 4.5039-53.809 1.4062-78.66-8.9297 8.8789-8.8789 13.32-11.84 11.051-18.746-2.2695-6.9062-4.9336-6.2148-58.012-13.812h-0.003907c-19.043-19.977-31.863-45.062-36.891-72.199-5.0273-27.141-2.0469-55.152 8.5742-80.629l8.6836 8.6836c2.6523 2.6016 6.543 3.4961 10.062 2.3086 3.5234-1.1914 6.0781-4.2539 6.6094-7.9336 7.9922-55.844 6.0195-49.332 10.359-52.98h0.003906c21.52-19.117 48.316-31.285 76.871-34.91 28.555-3.6289 57.539 1.457 83.156 14.586-11.543 11.641-16.18 14.305-13.715 21.508s6.6094 6.5117 56.93 13.715c16.52 19.949 27.254 44.039 31.047 69.66 3.793 25.621 0.49219 51.793-9.5391 75.668zm-271.91-219.52c37.453-32.188 84.73-50.695 134.08-52.488 49.352-1.793 97.848 13.238 137.54 42.621 3.9258 2.9727 9.4414 2.5938 12.922-0.88672l2.9609-2.9609c1.875 12.727 9.8672 69.062 10.656 74.391l-74.391-10.656 6.5117-6.5117v0.003906c2.1133-2.1172 3.1523-5.0781 2.8242-8.0508-0.32422-2.9727-1.9805-5.6367-4.5039-7.2422-27.094-17.059-58.613-25.75-90.617-24.996-32.008 0.75391-63.082 10.926-89.344 29.238-0.98828 0.69141-0.78906 2.5664 3.4531-27.527 0.43359-3.0703-0.59766-6.1641-2.793-8.3555-2.1914-2.1914-5.2852-3.2266-8.3555-2.793zm-38.18 43.016c2.6641-3.918 2.168-9.1797-1.1836-12.527l-4.3438-4.2422 74.391-10.656c-7.2031 50.812-4.5391 32.164-10.559 74.492l-4.5352-4.6406c-2.1992-2.2148-5.3203-3.2617-8.4141-2.8125-3.0938 0.44531-5.7891 2.332-7.2734 5.082-14.137 26.574-20.633 56.547-18.77 86.59 1.8633 30.043 12.016 58.98 29.328 83.605l-27.824-3.9453v-0.003906c-3.0703-0.43359-6.1641 0.60156-8.3555 2.793-2.1914 2.1914-3.2266 5.2891-2.793 8.3555l5.8203 41.043v0.003906c-31.098-36.086-49.461-81.395-52.262-128.95-2.7969-47.551 10.125-94.703 36.773-134.19zm58.504 301.22c-3.918-2.668-9.1797-2.168-12.527 1.1836l-4.3398 4.3398c-1.2812-8.9766-2.0703-13.91-10.656-74.391l74.492 10.559c-4.7344 4.7344-8.1875 7.2031-7.3008 13.023s6.5117 8.2891 14.801 12.035h-0.003906c52.441 23.559 113.42 17.707 160.43-15.391-6.6094 46.273-11.246 41.637 48.246 33.152-36.086 31.094-81.395 49.461-128.95 52.258-47.551 2.8008-94.703-10.121-134.19-36.77zm232.35-30.98c7.2031-50.812 4.5391-32.164 10.559-74.492 4.7344 4.7344 7.2031 8.1875 13.023 7.3008 5.8203-0.88672 8.6836-7.2031 12.43-15.59v0.003907c22-49.457 17.891-106.63-10.949-152.43 32.363 4.6367 32.066 5.0312 35.418 3.8477 4.2734-1.6953 6.8086-6.1133 6.1172-10.656l-5.625-38.875v0.003907c27.652 36.109 43.262 79.996 44.625 125.46 1.3633 45.461-11.586 90.203-37.027 127.91-2.6641 3.9219-2.168 9.1797 1.1836 12.531l4.3398 4.3398z"/>
 </g>
</svg>
