<?xml version="1.0" encoding="UTF-8"?>
<svg width="752pt" height="752pt" version="1.1" viewBox="0 0 752 752" xmlns="http://www.w3.org/2000/svg">
 <defs>
  <clipPath id="a">
   <path d="m139.21 221h473.58v310h-473.58z"/>
  </clipPath>
 </defs>
 <g clip-path="url(#a)">
  <path d="m431.65 375.13c0 30.68-24.965 55.645-55.645 55.645-30.68 0-55.645-24.965-55.645-55.645 0-30.68 24.965-55.645 55.645-55.645 30.676 0 55.645 24.965 55.645 55.645zm178.85 11.66c-3.6992 5.8594-92.438 143.7-234.5 143.7-145.38 0-231.05-137.61-234.63-143.45-2.0273-3.3164-2.4844-7.0898-1.7773-10.609-0.85938-3.7148-0.29688-7.7383 1.8945-11.234 3.6992-5.8594 92.438-143.7 234.5-143.7 145.38 0 231.05 137.61 234.63 143.45 2.0273 3.3164 2.4844 7.0898 1.7773 10.609 0.85938 3.7305 0.3125 7.7578-1.8945 11.234zm-149.25-11.66c0-47.004-38.242-85.246-85.246-85.246s-85.246 38.242-85.246 85.246 38.242 85.246 85.246 85.246c47.004-0.003906 85.246-38.242 85.246-85.246z"/>
 </g>
</svg>
