<?xml version="1.0" encoding="UTF-8"?>
<svg width="752pt" height="752pt" version="1.1" viewBox="0 0 752 752" xmlns="http://www.w3.org/2000/svg">
 <path d="m581.06 246.71h-246.73c-3.7891 0-7.1055-2.3672-8.5234-5.6836l-12.785-31.258c-2.8398-7.5781-10.418-12.312-18.469-12.312h-123.61c-10.891 0-19.891 8.9961-19.891 19.891v317.77c0 10.891 8.9961 19.891 19.891 19.891h410.12c10.891 0 19.891-8.9961 19.891-19.891v-268.52c0-10.895-9-19.891-19.891-19.891zm-271.84 201.75c5.6836 5.6836 5.6836 15.156 0 21.312-2.8398 2.8398-6.6289 4.2617-10.418 4.2617-3.7891 0-7.5781-1.4219-10.418-4.2617l-58.727-58.727c-5.6836-5.6836-5.6836-15.156 0-21.312l58.723-58.723c5.6836-5.6836 15.156-5.6836 21.312 0 6.1562 5.6836 5.6836 15.156 0 21.312l-48.305 48.305zm103.24-100.88-44.988 116.97c-2.3672 6.1562-8.0508 9.4727-13.734 9.4727-1.8945 0-3.7891-0.47266-5.2109-0.94531-7.5781-2.8398-11.367-11.367-8.5234-19.418l44.988-116.97c2.8398-7.5781 11.84-11.367 19.418-8.5234 7.1016 2.8398 10.891 11.836 8.0508 19.414zm109.87 63.461-58.727 58.723c-2.8398 2.8398-6.6289 4.2617-10.418 4.2617-3.7891 0-7.5781-1.4219-10.418-4.2617-5.6836-5.6836-5.6836-15.156 0-21.312l47.832-47.832-47.832-47.828c-5.6836-5.6836-5.6836-15.156 0-21.312 5.6836-5.6836 15.156-5.6836 21.312 0l58.25 58.723c5.6797 5.6836 5.6797 15.156 0 20.84z"/>
</svg>
