<?xml version="1.0" encoding="UTF-8"?>
<svg width="752pt" height="752pt" version="1.1" viewBox="0 0 752 752" xmlns="http://www.w3.org/2000/svg">
 <defs>
  <clipPath id="a">
   <path d="m139.21 139.21h473.58v473.58h-473.58z"/>
  </clipPath>
 </defs>
 <g clip-path="url(#a)">
  <path d="m583.19 139.21h-414.38c-7.8477 0-15.379 3.1172-20.93 8.668-5.5508 5.5508-8.668 13.082-8.668 20.93v335.45c0 7.8516 3.1172 15.379 8.668 20.93 5.5508 5.5508 13.082 8.6719 20.93 8.6719h145.23l-14.801 59.199-12.039-0.003906c-5.4453 0-9.8633 4.418-9.8633 9.8672s4.418 9.8672 9.8633 9.8672h177.59c5.4492 0 9.8672-4.418 9.8672-9.8672s-4.418-9.8672-9.8672-9.8672h-12.035l-14.801-59.199 145.23 0.003906c7.8516 0 15.379-3.1211 20.93-8.6719 5.5508-5.5508 8.6719-13.078 8.6719-20.93v-335.45c0-7.8477-3.1211-15.379-8.6719-20.93-5.5508-5.5508-13.078-8.668-20.93-8.668zm-424.25 98.664h434.11v217.05h-434.11zm9.8633-78.93h414.38c2.6172 0 5.1289 1.0391 6.9766 2.8867 1.8516 1.8516 2.8906 4.3594 2.8906 6.9766v49.332h-434.11v-49.332c0-5.4492 4.4141-9.8633 9.8633-9.8633zm263.63 434.11h-112.87l14.801-59.199h83.27zm150.75-78.93h-414.38c-5.4492 0-9.8633-4.418-9.8633-9.8672v-29.598h434.11v29.598c0 2.6172-1.0391 5.1289-2.8906 6.9766-1.8477 1.8516-4.3594 2.8906-6.9766 2.8906z"/>
 </g>
 <path d="m188.54 198.41c5.4492 0 9.8672-4.418 9.8672-9.8672s-4.418-9.8672-9.8672-9.8672-9.8672 4.418-9.8672 9.8672 4.418 9.8672 9.8672 9.8672z"/>
 <path d="m228.01 198.41c5.4492 0 9.8672-4.418 9.8672-9.8672s-4.418-9.8672-9.8672-9.8672c-5.4492 0-9.8672 4.418-9.8672 9.8672s4.418 9.8672 9.8672 9.8672z"/>
 <path d="m267.47 198.41c5.4492 0 9.8672-4.418 9.8672-9.8672s-4.418-9.8672-9.8672-9.8672c-5.4492 0-9.8672 4.418-9.8672 9.8672s4.418 9.8672 9.8672 9.8672z"/>
 <path d="m297.66 385.87c1.2617 10.43 4.6172 20.496 9.8672 29.598l-34.141 19.734c-8.7188-15.094-13.945-31.953-15.293-49.332z"/>
 <path d="m285.53 299.44 28.117 28.219h0.003907c-8.707 11.148-14.23 24.445-15.984 38.48h-40.059c2.125-24.602 11.887-47.922 27.922-66.699z"/>
 <path d="m299.44 285.53c18.777-16.035 42.098-25.797 66.699-27.922v39.465c-14.035 1.7578-27.332 7.2812-38.48 15.984z"/>
 <path d="m452.56 285.53-28.215 28.121c-11.148-8.707-24.445-14.23-38.48-15.984v-40.059c24.602 2.125 47.918 11.887 66.695 27.922z"/>
 <path d="m454.34 385.87h39.465c-1.3477 17.379-6.5703 34.238-15.293 49.332l-34.336-19.734c5.3516-9.0781 8.8086-19.145 10.164-29.598z"/>
 <path d="m454.34 366.14c-1.7578-14.035-7.2812-27.332-15.984-38.48l28.117-28.219h0.003906c16.031 18.777 25.797 42.098 27.922 66.699z"/>
 <path d="m257.61 277.34h-59.195c-5.4492 0-9.8672-4.418-9.8672-9.8672 0-5.4492 4.418-9.8672 9.8672-9.8672h59.199-0.003906c5.4492 0 9.8672 4.418 9.8672 9.8672 0 5.4492-4.418 9.8672-9.8672 9.8672z"/>
 <path d="m237.88 316.8h-39.465c-5.4492 0-9.8672-4.418-9.8672-9.8672s4.418-9.8672 9.8672-9.8672h39.465c5.4492 0 9.8633 4.418 9.8633 9.8672s-4.4141 9.8672-9.8633 9.8672z"/>
 <path d="m553.59 277.34h-59.195c-5.4492 0-9.8672-4.418-9.8672-9.8672 0-5.4492 4.418-9.8672 9.8672-9.8672h59.199-0.003906c5.4492 0 9.8672 4.418 9.8672 9.8672 0 5.4492-4.418 9.8672-9.8672 9.8672z"/>
 <path d="m553.59 316.8h-39.465c-5.4492 0-9.8672-4.418-9.8672-9.8672s4.418-9.8672 9.8672-9.8672h39.465c5.4492 0 9.8672 4.418 9.8672 9.8672s-4.418 9.8672-9.8672 9.8672z"/>
 <path d="m395.73 378.37 19.73-41.836c-70.148 33.547 17.562-8.582-53.375 25.555-3.6797 3.6992-5.7422 8.707-5.7383 13.922 0.003907 5.2188 2.0703 10.223 5.7539 13.918 3.6836 3.6953 8.6797 5.7812 13.895 5.8047 5.2266-0.023437 10.23-2.1172 13.914-5.8203 3.1797-3.0859 5.2305-7.1523 5.8203-11.543z"/>
</svg>
