<?xml version="1.0" encoding="UTF-8"?>
<svg width="752pt" height="752pt" version="1.1" viewBox="0 0 752 752" xmlns="http://www.w3.org/2000/svg">
 <defs>
  <clipPath id="a">
   <path d="m139.21 214h473.58v314h-473.58z"/>
  </clipPath>
 </defs>
 <path d="m437.21 581.27c-8.207-6.0391-9.082-15.102-9.082-15.102l-3.0781-19.676h-98.098l-3.0859 19.664s-0.85547 9.0742-9.0625 15.113c-8.2031 6.0352-14.676 11.215-8.2031 12.09 6.2383 0.84375 65.07 0.074219 69.406 0 4.3477 0.074219 63.168 0.84375 69.402 0 6.4648-0.87109-0.011718-6.043-8.1992-12.09z"/>
 <path d="m265.5 424.08c26.207-0.20312 29.473-6.5195 38.016-32.828 15.758-41.527 86.707 10.867 42.734 29.055-43.973 18.195-106.96 3.9766-80.75 3.7734z"/>
 <path d="m534.23 150.43c-12.727-10.25-33.785-5.1992-47.059 11.27l-134.46 191.03c-13.273 16.465-13.207 13.32-0.49219 23.562 12.715 10.25 9.6523 10.988 22.926-5.4844l158.07-171.99c13.27-16.48 13.73-38.137 1.0156-48.383zm-34.574 22.867s-1.9688-2.2891-8.5195-7.5234c9.8203-16.039 29.125-13.098 29.125-13.098-18.309 10.801-20.605 20.621-20.605 20.621z"/>
 <g clip-path="url(#a)">
  <path d="m593.85 214.98h-59.125l-26.113 28.414h75.773v227.32h-416.75v-227.32h242.43l20.012-28.414h-271.92c-10.461 0-18.941 8.4805-18.941 18.941v274.68c0 10.461 8.4805 18.941 18.941 18.941h435.7c10.461 0 18.941-8.4805 18.941-18.941v-274.68c0-10.461-8.4805-18.941-18.945-18.941z"/>
 </g>
</svg>
