<?xml version="1.0" encoding="UTF-8"?>
<svg width="752pt" height="752pt" version="1.1" viewBox="0 0 752 752" xmlns="http://www.w3.org/2000/svg">
 <defs>
  <clipPath id="a">
   <path d="m139.21 155h473.58v441h-473.58z"/>
  </clipPath>
 </defs>
 <g clip-path="url(#a)">
  <path d="m583.19 155.98h-414.38c-16.773 0-29.598 12.824-29.598 29.598v296.98c0 15.785 12.824 29.598 29.598 29.598h156.88l-24.664 45.387h-20.719c-10.852 0-18.746 8.8789-18.746 18.746 0 10.852 8.8789 18.746 18.746 18.746h189.43c10.852 0 18.746-8.8789 18.746-18.746 0-10.852-8.8789-18.746-18.746-18.746h-20.719l-24.664-45.387h158.84c16.773 0 29.598-13.812 29.598-29.598l0.003907-296.98c0-16.773-12.828-29.598-29.602-29.598zm-224.95 323.61c0-9.8672 7.8945-17.758 17.758-17.758 9.8672 0 17.758 7.8945 17.758 17.758 0.003907 9.8672-7.8906 17.758-17.758 17.758-9.8633 0-17.758-7.8906-17.758-17.758zm215.09-36.504h-394.65v-247.64h394.65z"/>
 </g>
 <path d="m308.91 340.48-63.145-29.602v-1.9727l63.145-28.613v-20.719l-84.848 39.465v22.695l84.848 38.477z"/>
 <path d="m424.35 235.9h-17.762l-78.93 166.74h18.746z"/>
 <path d="m527.94 299.04-84.848-39.465v20.719l63.141 28.613v1.9727l-63.141 29.602v19.73l84.848-38.477z"/>
</svg>
